<svg xmlns="http://www.w3.org/2000/svg" viewBox="0 0 534.1 122.02"><defs><style>.a{fill:#949498;}.b{fill:#006eb5;}.c{fill:#fff;}</style></defs><path class="a" d="M.63,104.7a6.84,6.84,0,0,1,1.72-2.15A8.3,8.3,0,0,1,4.9,101.1,9.37,9.37,0,0,1,8,100.59a10.3,10.3,0,0,1,1.39.08,11.09,11.09,0,0,1,1.2.2,8.44,8.44,0,0,1,.88.25,2.15,2.15,0,0,1,.47.24c.1.07.18.29.25.65a9.15,9.15,0,0,1,.1,1.46c0,.24-.07.37-.21.37a.59.59,0,0,1-.39-.21c-.13-.15-.29-.35-.49-.61a5.79,5.79,0,0,0-1.49-1.39,3.35,3.35,0,0,0-1.81-.47,4.73,4.73,0,0,0-2,.44,5.06,5.06,0,0,0-1.63,1.29,6,6,0,0,0-1.12,2,8.29,8.29,0,0,0-.39,2.62A7.41,7.41,0,0,0,3.15,110a6.5,6.5,0,0,0,1.08,1.94,5.11,5.11,0,0,0,1.57,1.27,4.13,4.13,0,0,0,1.88.45,3.86,3.86,0,0,0,2.09-.52,4.42,4.42,0,0,0,1.45-1.59c.22-.37.38-.66.51-.85a.5.5,0,0,1,.42-.31c.2,0,.3.14.3.43,0,.07,0,.26,0,.56s0,.69,0,1.18a.93.93,0,0,1-.34.66,2.53,2.53,0,0,1-.94.54,7.91,7.91,0,0,1-1.45.35,13,13,0,0,1-1.85.13,8.63,8.63,0,0,1-3.1-.54,7.75,7.75,0,0,1-2.47-1.45A6.47,6.47,0,0,1,.6,110.06a6.13,6.13,0,0,1-.6-2.69A5.93,5.93,0,0,1,.63,104.7Z"/><path class="a" d="M18.76,101.55a4.24,4.24,0,0,0-1.48,1.16,5.58,5.58,0,0,0-1,1.86,8.24,8.24,0,0,0-.36,2.54,9.68,9.68,0,0,0,.37,2.75,6.19,6.19,0,0,0,1.05,2,4.69,4.69,0,0,0,1.56,1.29,4.46,4.46,0,0,0,1.92.43,4.16,4.16,0,0,0,1.81-.4,4.25,4.25,0,0,0,1.49-1.16,5.77,5.77,0,0,0,1-1.87,8.51,8.51,0,0,0,.36-2.54,8.93,8.93,0,0,0-.39-2.74,6.71,6.71,0,0,0-1.05-2,4.52,4.52,0,0,0-1.57-1.27,4.18,4.18,0,0,0-1.91-.44A4.35,4.35,0,0,0,18.76,101.55Zm4.86-.45A7.85,7.85,0,0,1,26,102.53a7,7,0,0,1,1.62,2.16,6.26,6.26,0,0,1,.59,2.69,6.41,6.41,0,0,1-.58,2.7A7.18,7.18,0,0,1,26,112.25a8,8,0,0,1-2.4,1.43,8.13,8.13,0,0,1-2.92.53,8,8,0,0,1-2.88-.53,7.73,7.73,0,0,1-2.37-1.43,7,7,0,0,1-1.61-2.17,6.26,6.26,0,0,1,0-5.39,6.86,6.86,0,0,1,1.61-2.16,7.67,7.67,0,0,1,2.38-1.43,8.34,8.34,0,0,1,2.92-.51A8.16,8.16,0,0,1,23.62,101.1Z"/><path class="a" d="M33.06,107A4.7,4.7,0,0,0,34,107c1.82,0,2.74-.86,2.74-2.58a2.91,2.91,0,0,0-.68-2,2.5,2.5,0,0,0-2-.75,3.52,3.52,0,0,0-.72.06.8.8,0,0,0-.38.2.68.68,0,0,0-.18.32,2.87,2.87,0,0,0,0,.44v3.87A.36.36,0,0,0,33.06,107Zm3.94.86c.14.22.29.47.44.74l1.53,2.8.72,1.28a1.06,1.06,0,0,0,.53.53,4.43,4.43,0,0,0,.79.19c.22,0,.33.13.33.28s0,.15-.11.17a1.39,1.39,0,0,1-.35,0l-.75,0a8.24,8.24,0,0,0-.87,0,3.82,3.82,0,0,0-.58,0,5.68,5.68,0,0,1-.59,0,.64.64,0,0,1-.51-.16,3.86,3.86,0,0,1-.3-.52l-2.39-4.64a2.06,2.06,0,0,0-.59-.72,1.62,1.62,0,0,0-.9-.2h-.27c-.22,0-.34.1-.34.29V112a4.33,4.33,0,0,0,0,.55.86.86,0,0,0,.13.41.69.69,0,0,0,.35.25,1.66,1.66,0,0,0,.66.1c.39,0,.59.1.59.32s-.18.25-.53.25c-.14,0-.41,0-.8-.06s-.93-.07-1.62-.07-1.26,0-1.67.07-.7.06-.86.06c-.38,0-.56-.1-.56-.3a.19.19,0,0,1,.1-.18.69.69,0,0,1,.23-.07,1.83,1.83,0,0,1,.34,0,1.18,1.18,0,0,0,.37,0,1.45,1.45,0,0,0,.49-.14.53.53,0,0,0,.25-.21.81.81,0,0,0,.1-.35c0-.14,0-.32,0-.54v-9.35a1.39,1.39,0,0,0-.11-.66.73.73,0,0,0-.48-.28,3.2,3.2,0,0,0-.51-.06,2.42,2.42,0,0,1-.39,0,.58.58,0,0,1-.26-.07.22.22,0,0,1-.09-.21c0-.14.05-.22.17-.25a2.35,2.35,0,0,1,.54,0c.11,0,.31,0,.62,0s.68,0,1.14,0q1,0,2-.06c.63,0,1.24-.06,1.85-.06a5.2,5.2,0,0,1,3.24.86,2.76,2.76,0,0,1,1.11,2.28,3,3,0,0,1-.76,2.07,3.48,3.48,0,0,1-2.08,1.07A1.86,1.86,0,0,1,37,107.82Z"/><path class="a" d="M52.35,103.35c0,.35-.09.52-.29.52a.31.31,0,0,1-.28-.15,1.58,1.58,0,0,1-.19-.37,5.06,5.06,0,0,0-.3-.5,2.19,2.19,0,0,0-.53-.52,5.61,5.61,0,0,0-3.25-.78,4.22,4.22,0,0,0-.82.06,1,1,0,0,0-.44.21.6.6,0,0,0-.19.38,3.52,3.52,0,0,0,0,.61v3.42a.76.76,0,0,0,0,.34c0,.05.19.07.43.07h1.2a8.58,8.58,0,0,0,1.43-.1,2.26,2.26,0,0,0,.8-.26,1.35,1.35,0,0,0,.38-.43,1.73,1.73,0,0,0,.15-.39,2.54,2.54,0,0,1,.12-.31.3.3,0,0,1,.28-.12c.22,0,.33.09.33.28a6.35,6.35,0,0,1-.08.9,9.61,9.61,0,0,0-.06,1.1c0,.49,0,.88,0,1.17s0,.48,0,.58-.11.37-.32.37a.28.28,0,0,1-.25-.11,1.27,1.27,0,0,1-.16-.31c0-.13-.1-.28-.18-.45a2.54,2.54,0,0,0-.32-.56,1.25,1.25,0,0,0-.85-.57,7.2,7.2,0,0,0-1.38-.12H46.5a.68.68,0,0,0-.39.08.38.38,0,0,0-.09.3v4.24a2.51,2.51,0,0,0,.08.69.72.72,0,0,0,.29.39,1.65,1.65,0,0,0,.58.19,8.62,8.62,0,0,0,1,0q.63,0,1.11,0a3.8,3.8,0,0,0,.89-.17,2.53,2.53,0,0,0,.72-.35,5.14,5.14,0,0,0,.64-.61,7,7,0,0,0,.72-1c.16-.28.34-.41.56-.41a.29.29,0,0,1,.17.07c.06.05.1.08.1.11s0,.26-.06.37l-.3,2a2.27,2.27,0,0,1,0,.35.48.48,0,0,1-.11.2.45.45,0,0,1-.23.1l-.44,0c-.55,0-1.39,0-2.51-.08s-2.55-.08-4.28-.08c-.79,0-1.4,0-1.82.06l-.78,0c-.38,0-.58-.11-.58-.33s.1-.27.32-.27a5.42,5.42,0,0,0,.82-.06c.39,0,.63-.16.7-.37a3,3,0,0,0,.1-.9v-9.4a2.28,2.28,0,0,0-.07-.65c0-.12-.19-.22-.43-.29a1.71,1.71,0,0,0-.43-.06l-.37,0a.74.74,0,0,1-.26-.07.24.24,0,0,1-.09-.22c0-.19.15-.28.45-.28l1.15,0c.65,0,1.59,0,2.81,0,1.57,0,2.78,0,3.65,0l1.57,0c.36,0,.57,0,.64.14a.82.82,0,0,1,.1.47v1.84Z"/><path class="a" d="M65.54,103.38a1.3,1.3,0,0,1-.1.45c0,.08-.14.12-.28.12a.32.32,0,0,1-.27-.11.83.83,0,0,1-.17-.28c0-.12-.09-.27-.14-.44s-.12-.34-.19-.55a1.65,1.65,0,0,0-1-.83,7.92,7.92,0,0,0-1.86-.17h-.43a.28.28,0,0,0-.25.11.39.39,0,0,0-.1.22v10c0,.21,0,.38,0,.52a.75.75,0,0,0,.09.35.5.5,0,0,0,.2.21,1.46,1.46,0,0,0,.42.14,2.46,2.46,0,0,0,.45.07l.37,0a.53.53,0,0,1,.25.08.25.25,0,0,1,.09.22c0,.18-.18.28-.55.28s-.64,0-1-.07a13.55,13.55,0,0,0-2.94,0c-.43,0-.79.07-1.07.07s-.56-.11-.56-.32a.22.22,0,0,1,.11-.2.66.66,0,0,1,.27-.08,2,2,0,0,1,.37,0,1.52,1.52,0,0,0,.42-.06.91.91,0,0,0,.62-.34,2.7,2.7,0,0,0,.11-.88V102a.5.5,0,0,0-.1-.26.28.28,0,0,0-.26-.13h-.74a3.38,3.38,0,0,0-1.36.24,4,4,0,0,0-1,.74l-.74,1a.68.68,0,0,1-.57.35h-.05a.4.4,0,0,1-.17,0c-.05,0-.07-.12-.07-.26s0,0,0-.12a.74.74,0,0,1,.08-.22l.67-2.06.19-.75a.32.32,0,0,1,.33-.28.21.21,0,0,1,.18.1l.13.23a1.91,1.91,0,0,0,.13.25.19.19,0,0,0,.18.12,2.54,2.54,0,0,0,1.24.18h5.19c.45,0,.84,0,1.19,0l.89,0a2.22,2.22,0,0,0,.85-.11.87.87,0,0,0,.31-.22,1.93,1.93,0,0,0,.19-.27,1.14,1.14,0,0,1,.17-.23.25.25,0,0,1,.41,0,.59.59,0,0,1,.07.23v.23Z"/><path class="a" d="M70.44,107a4.9,4.9,0,0,0,1,.07c1.81,0,2.73-.86,2.73-2.58a2.91,2.91,0,0,0-.67-2,2.48,2.48,0,0,0-2-.75,3.18,3.18,0,0,0-.7.06.87.87,0,0,0-.41.2.58.58,0,0,0-.16.32,2,2,0,0,0,0,.44v3.87C70.18,106.78,70.27,106.92,70.44,107Zm4,.86c.15.22.29.47.44.74l1.54,2.8c.29.56.53,1,.71,1.28a1.07,1.07,0,0,0,.54.53,4.16,4.16,0,0,0,.78.19c.22,0,.33.13.33.28s0,.15-.1.17a1.46,1.46,0,0,1-.34,0l-.77,0a8.24,8.24,0,0,0-.87,0,3.76,3.76,0,0,0-.58,0,5.59,5.59,0,0,1-.57,0,.68.68,0,0,1-.53-.16,3.86,3.86,0,0,1-.3-.52l-2.4-4.64a2,2,0,0,0-.57-.72,1.67,1.67,0,0,0-.9-.2h-.27c-.24,0-.35.1-.35.29V112a4.33,4.33,0,0,0,0,.55.87.87,0,0,0,.14.41.71.71,0,0,0,.34.25,1.68,1.68,0,0,0,.67.1c.39,0,.58.1.58.32s-.18.25-.53.25c-.15,0-.42,0-.8-.06s-.93-.07-1.62-.07-1.24,0-1.67.07-.7.06-.86.06c-.37,0-.55-.1-.55-.3a.19.19,0,0,1,.08-.18.75.75,0,0,1,.25-.07,1.62,1.62,0,0,1,.33,0,1.22,1.22,0,0,0,.37,0,1.77,1.77,0,0,0,.5-.14.58.58,0,0,0,.25-.21.81.81,0,0,0,.09-.35c0-.14,0-.32,0-.54v-9.35a1.62,1.62,0,0,0-.09-.66.82.82,0,0,0-.5-.28,3,3,0,0,0-.5-.06,2.36,2.36,0,0,1-.39,0,.67.67,0,0,1-.27-.07c-.06,0-.08-.11-.08-.21s.05-.22.17-.25a2.45,2.45,0,0,1,.55,0c.1,0,.31,0,.61,0s.68,0,1.14,0q1,0,1.95-.06c.62,0,1.24-.06,1.84-.06a5.26,5.26,0,0,1,3.26.86,2.77,2.77,0,0,1,1.09,2.28,3,3,0,0,1-.75,2.07,3.51,3.51,0,0,1-2.08,1.07A1.86,1.86,0,0,1,74.39,107.82Z"/><path class="a" d="M82.22,109.66a8,8,0,0,0,.14,1.65,2.76,2.76,0,0,0,.54,1.2,2.35,2.35,0,0,0,1,.72,5.06,5.06,0,0,0,1.75.24,4,4,0,0,0,3.12-1.08,2.31,2.31,0,0,0,.57-1.29,13.62,13.62,0,0,0,.1-1.82v-4.92c0-.78,0-1.37-.06-1.78a1.09,1.09,0,0,0-.42-.85,1,1,0,0,0-.42-.12l-.48,0a1.43,1.43,0,0,1-.38-.07.2.2,0,0,1-.15-.21c0-.19.15-.29.45-.29s.38,0,.67,0l1.13,0L91,101c.3,0,.52,0,.67,0,.37,0,.56.1.56.29a.23.23,0,0,1-.19.23,2.66,2.66,0,0,1-.59,0,1.28,1.28,0,0,0-.65.14.86.86,0,0,0-.34.46,3.21,3.21,0,0,0-.16.84c0,.36,0,.79,0,1.29v5a17.42,17.42,0,0,1-.09,1.88,3,3,0,0,1-.63,1.5,3.55,3.55,0,0,1-1.66,1.13,7.93,7.93,0,0,1-2.64.4,9.72,9.72,0,0,1-2.86-.36,3.85,3.85,0,0,1-1.84-1.12,2.61,2.61,0,0,1-.66-1.34,10.73,10.73,0,0,1-.12-1.69v-7.19a1.87,1.87,0,0,0-.08-.67c-.06-.11-.22-.2-.51-.27l-.49-.06-.38,0a.8.8,0,0,1-.26,0c-.06,0-.08-.09-.08-.19s.12-.25.39-.25.43,0,.85.08a14.05,14.05,0,0,0,1.8.08,13.8,13.8,0,0,0,1.78-.08c.44,0,.72-.08.86-.08s.4.09.4.25a.21.21,0,0,1-.11.2.9.9,0,0,1-.27.06h-.42a2.38,2.38,0,0,0-.45,0c-.27.07-.43.16-.49.28a1.46,1.46,0,0,0-.09.66Z"/><path class="a" d="M93.57,102.69a3.27,3.27,0,0,1,.94-1.13,4.54,4.54,0,0,1,1.48-.72,8,8,0,0,1,3.93,0,2.7,2.7,0,0,1,1.07.43,6,6,0,0,1,.2,2.23c0,.28-.11.43-.34.43a.38.38,0,0,1-.39-.28,6.26,6.26,0,0,0-.38-.81,4.26,4.26,0,0,0-.93-1.24,2.18,2.18,0,0,0-1.45-.43,2.9,2.9,0,0,0-1.87.56,1.88,1.88,0,0,0-.68,1.53,1.68,1.68,0,0,0,.59,1.33,7.21,7.21,0,0,0,1.87,1c.7.28,1.32.57,1.87.85a6.79,6.79,0,0,1,1.38.94,3.48,3.48,0,0,1,.86,1.18,3.52,3.52,0,0,1,.29,1.5,3.64,3.64,0,0,1-.38,1.65,4,4,0,0,1-1.06,1.3,4.87,4.87,0,0,1-1.61.87,6.54,6.54,0,0,1-2.06.32,8,8,0,0,1-2.85-.43c-.73-.29-1.09-.73-1.09-1.32,0-.23,0-.46,0-.67s0-.42,0-.61,0-.27,0-.37a1.31,1.31,0,0,1,0-.17q0-.63.39-.63a.3.3,0,0,1,.27.11.85.85,0,0,1,.12.3c0,.13,0,.29.1.46a3.11,3.11,0,0,0,.15.56,3.31,3.31,0,0,0,1.29,1.62,3.49,3.49,0,0,0,1.91.57,3.4,3.4,0,0,0,1.11-.18,2.92,2.92,0,0,0,.92-.51,2.4,2.4,0,0,0,.61-.78,2.06,2.06,0,0,0,.24-1,2.32,2.32,0,0,0-.76-1.69,7.46,7.46,0,0,0-2.27-1.4l-1.5-.67a6.51,6.51,0,0,1-1.22-.76,3.51,3.51,0,0,1-.82-1,3.34,3.34,0,0,1-.3-1.5A3,3,0,0,1,93.57,102.69Z"/><path class="a" d="M115,103.38a.93.93,0,0,1-.11.45c0,.08-.13.12-.26.12a.37.37,0,0,1-.29-.11,1,1,0,0,1-.16-.28c0-.12-.09-.27-.14-.44s-.12-.34-.19-.55a1.7,1.7,0,0,0-1-.83,8,8,0,0,0-1.87-.17h-.42a.3.3,0,0,0-.25.11.33.33,0,0,0-.1.22v10c0,.21,0,.38,0,.52a1.12,1.12,0,0,0,.09.35.53.53,0,0,0,.21.21,1.5,1.5,0,0,0,.41.14,2.6,2.6,0,0,0,.45.07l.37,0a.57.57,0,0,1,.26.08.25.25,0,0,1,.09.22c0,.18-.18.28-.56.28s-.63,0-1-.07a10.57,10.57,0,0,0-1.47-.08,10.85,10.85,0,0,0-1.47.08c-.42,0-.77.07-1.06.07s-.55-.11-.55-.32a.21.21,0,0,1,.1-.2.66.66,0,0,1,.27-.08,2,2,0,0,1,.37,0,1.47,1.47,0,0,0,.42-.06.91.91,0,0,0,.62-.34,2.51,2.51,0,0,0,.1-.88V102a.48.48,0,0,0-.09-.26.29.29,0,0,0-.25-.13h-.75a3.26,3.26,0,0,0-1.35.24,4.3,4.3,0,0,0-1,.74c-.32.41-.55.73-.72,1a.73.73,0,0,1-.58.35H103a.38.38,0,0,1-.16,0c-.05,0-.07-.12-.07-.26a.34.34,0,0,1,0-.12.74.74,0,0,1,.08-.22l.66-2.06c.09-.31.16-.56.2-.75a.31.31,0,0,1,.34-.28.2.2,0,0,1,.17.1l.13.23a2,2,0,0,0,.12.25.19.19,0,0,0,.18.12,2.61,2.61,0,0,0,1.26.18h5.18c.44,0,.84,0,1.19,0l.89,0a2.22,2.22,0,0,0,.85-.11.76.76,0,0,0,.3-.22,2.07,2.07,0,0,0,.2-.27,1.72,1.72,0,0,1,.17-.23.23.23,0,0,1,.18-.09.21.21,0,0,1,.22.13.46.46,0,0,1,.07.23v.23Z"/><rect class="b" x="0.35" y="117.31" width="114.5" height="4.71"/><path class="b" d="M76.65,0H.44V29.36C3.23,28.18,6.7,27,10.8,25.31Z"/><path class="b" d="M54.82,30.88c0,3.32,3.55,6.11,10.61,8.89l49.72,18.89V0h-.52L68.15,20C60,23.65,54.82,26.43,54.82,30.88Z"/><path class="b" d="M.44,50.62V97.43H115.15v-7L14.6,55.33C9.77,53.85,4.75,52.16.44,50.62Z"/><path class="c" d="M10.8,25.31C6.7,27,3.23,28.18.44,29.36V50.62c4.31,1.54,9.33,3.23,14.16,4.71L115.15,90.46V58.66L65.43,39.77C58.37,37,54.82,34.2,54.82,30.88c0-4.45,5.17-7.23,13.33-10.84L114.63,0h-38Z"/><path class="a" d="M173.69,43.78q-1.23,8.92-5.86,14.11A20.33,20.33,0,0,1,159,63.43a22.19,22.19,0,0,1-6.53,1q-9.19,0-15-6.15Q130.72,51,130.72,37.4q0-11.91,6-19.16T153.28,11c5.83,0,10.61,1.74,14.3,5.22,3.09,3,5,7,5.67,12h-7.08q-1.23-5.82-5.48-8.42a14.1,14.1,0,0,0-7.4-1.87,13.35,13.35,0,0,0-10.6,4.8q-4.38,5.19-4.38,14.46c0,6.26,1.08,11.06,3.27,14.39q3.69,5.85,11.89,5.84A11.26,11.26,0,0,0,160.69,55c2.95-2.33,4.93-6.06,5.91-11.2Z"/><path class="a" d="M217,37.66q0-8.76-4.3-14.23A14.2,14.2,0,0,0,200.84,18a14.05,14.05,0,0,0-11.66,5.51q-4.32,5.52-4.33,14.2t4.3,14.2a14,14,0,0,0,11.69,5.58A14.3,14.3,0,0,0,212.55,52Q217,46.49,217,37.66Zm7.6,0a30.38,30.38,0,0,1-5,17.48q-6.28,9.26-18.69,9.25t-18.51-9.25a30.24,30.24,0,0,1-5-17.48,30.45,30.45,0,0,1,4.93-17.42Q188.6,11,200.87,11,213,11,219.5,20.18A30.31,30.31,0,0,1,224.57,37.66Z"/><path class="a" d="M262.07,26.8q0-4.65-2.89-6.51A9.66,9.66,0,0,0,254,19.12H238.63V34.85H253a11.28,11.28,0,0,0,6.22-1.41Q262.08,31.51,262.07,26.8Zm9.56,36.31h-8.78a46.29,46.29,0,0,1-1-6.35l-.31-6.69c0-3.11-.75-5.35-2.22-6.74-1.27-1.08-3.19-1.62-5.73-1.62h-15v21.4h-7.38V12.27H253.6q7,0,11,2.85,5.06,3.55,5.05,11.05a14.56,14.56,0,0,1-1.88,7.75,12.65,12.65,0,0,1-4.14,4,10,10,0,0,1,3.45,2.72,12,12,0,0,1,1.61,6.75l.42,9.09a7,7,0,0,0,.38,2.69,5,5,0,0,0,2.12,1.92Z"/><polygon class="a" points="314.06 63.11 278.11 63.11 278.11 12.27 313.63 12.27 313.63 19.34 285.49 19.34 285.49 33.47 311.4 33.47 311.4 40.42 285.49 40.42 285.49 56.15 314.06 56.15 314.06 63.11"/><polygon class="a" points="356.13 19.34 340.08 19.34 340.08 63.11 332.69 63.11 332.69 19.34 316.63 19.34 316.63 12.27 356.13 12.27 356.13 19.34"/><path class="a" d="M392.09,26.8c0-3.1-1-5.27-2.89-6.51A9.67,9.67,0,0,0,384,19.12H368.64V34.85H383a11.36,11.36,0,0,0,6.23-1.41C391.12,32.15,392.09,29.94,392.09,26.8Zm9.55,36.31h-8.78a49.73,49.73,0,0,1-1-6.35l-.31-6.69c0-3.11-.74-5.35-2.22-6.74-1.27-1.08-3.19-1.62-5.72-1.62h-15v21.4h-7.38V12.27h22.35q7,0,11,2.85,5.06,3.55,5.06,11.05a14.47,14.47,0,0,1-1.9,7.75,12.56,12.56,0,0,1-4.12,4,9.9,9.9,0,0,1,3.44,2.72,12.07,12.07,0,0,1,1.61,6.75l.42,9.09a7,7,0,0,0,.38,2.69,5.06,5.06,0,0,0,2.12,1.92Z"/><path class="a" d="M446,45A19.86,19.86,0,0,1,441.2,58.7c-3.49,3.79-8.46,5.69-14.87,5.69q-9.25,0-14.2-5.56c-2.95-3.33-4.44-7.6-4.44-12.82V12.27h7.4V44.15q0,7.14,3.62,10.5a11.14,11.14,0,0,0,7.87,2.79,11.87,11.87,0,0,0,8.06-2.66c2.59-2.2,3.87-5.7,3.87-10.5v-32H446Z"/><path class="a" d="M491.27,48.84q0,8.17-6.34,12.31c-3.36,2.16-7.61,3.24-12.69,3.24a24.41,24.41,0,0,1-9.87-1.68,15.28,15.28,0,0,1-4.8-3.18,16.13,16.13,0,0,1-3.95-5.9l-.73-3.51L452.64,46h7q0,6.08,4.06,9.18a14.48,14.48,0,0,0,8.49,2.4q6,0,9.29-2.33a6.5,6.5,0,0,0,2.65-5.49q0-3.75-2-5.24c-1.22-1-3.81-2.06-7.74-3.1l-9.74-2.32a16.19,16.19,0,0,1-6.43-3,11.26,11.26,0,0,1-4.09-9.25,15.6,15.6,0,0,1,3.95-10.94Q462.58,11,471,11q11,0,15.83,6.13,3.09,4.15,3.08,10.82h-7c0-3.54-1.22-6.22-3.68-8a13.07,13.07,0,0,0-7.57-2.07,13.77,13.77,0,0,0-6.5,1.36c-2.5,1.36-3.76,3.63-3.76,6.81A5.18,5.18,0,0,0,463,30a9.19,9.19,0,0,0,3.58,1.74L480.19,35a15.57,15.57,0,0,1,7.94,4.41Q491.28,42.88,491.27,48.84Z"/><polygon class="a" points="533.12 19.34 517.05 19.34 517.05 63.11 509.67 63.11 509.67 19.34 493.62 19.34 493.62 12.27 533.12 12.27 533.12 19.34"/><path class="b" d="M135.61,105a2.77,2.77,0,0,0,.62,1.79,3.85,3.85,0,0,0,3.05,1.07,5.76,5.76,0,0,0,2.41-.44,2,2,0,0,0,1.16-1.86A1.67,1.67,0,0,0,142,104a8.81,8.81,0,0,0-2.24-.72l-1.84-.49c-.93-.22-1.6-.4-2.05-.55a6.56,6.56,0,0,1-1.72-.86,3.78,3.78,0,0,1-1.25-1.48,6,6,0,0,1-.44-2.41A5.25,5.25,0,0,1,133.63,94q1.71-2.06,5.41-2a6.59,6.59,0,0,1,5.29,2.12,5.77,5.77,0,0,1,1.39,3.76h-3.39a3.4,3.4,0,0,0-.63-1.65,3.67,3.67,0,0,0-2.93-1,4,4,0,0,0-2,.46,1.87,1.87,0,0,0-1,1.7,1.61,1.61,0,0,0,.61,1.34,3.51,3.51,0,0,0,1.17.51l0,0,4.2,1.11a7.34,7.34,0,0,1,3.11,1.39,4.3,4.3,0,0,1,1.39,3.48,5.2,5.2,0,0,1-2.84,5,8.15,8.15,0,0,1-3.93.93q-4.17,0-6-2.21a5.65,5.65,0,0,1-1.32-3.83Z"/><polygon class="b" points="162.69 95.63 153.58 95.63 153.58 99.47 161.91 99.47 161.91 102.65 153.58 102.65 153.58 107.37 163.06 107.37 163.06 110.58 150.06 110.58 150.06 92.39 162.69 92.39 162.69 95.63"/><path class="b" d="M177.46,98.41a4.91,4.91,0,0,0-.87-2,3.5,3.5,0,0,0-2.86-1.16,3.67,3.67,0,0,0-2.81,1.2q-1.5,1.63-1.5,5a8.27,8.27,0,0,0,1,4.3,3.62,3.62,0,0,0,3.31,1.88,3.38,3.38,0,0,0,2.42-.88,4.51,4.51,0,0,0,1.31-2.56h3.63a9,9,0,0,1-2.41,4.86,7.71,7.71,0,0,1-10.7-.54,10.57,10.57,0,0,1-2.22-7.13,10.25,10.25,0,0,1,2.29-7.08A7.15,7.15,0,0,1,173.66,92a7.25,7.25,0,0,1,5.55,2.2,7,7,0,0,1,1.88,4.25Z"/><path class="b" d="M198.58,104.14a6.64,6.64,0,0,1-1.91,5.21,7.32,7.32,0,0,1-5.14,1.65,8.32,8.32,0,0,1-2.81-.46,5.4,5.4,0,0,1-3.75-3.71,8.23,8.23,0,0,1-.33-2.44v-12h3.68v11.74a3.83,3.83,0,0,0,.9,2.75,3,3,0,0,0,2.25.88,3.42,3.42,0,0,0,2.64-.92,3.51,3.51,0,0,0,.82-2.56V92.38h3.65Z"/><path class="b" d="M210.61,100.45a3.08,3.08,0,0,0,2.08-.58,2.56,2.56,0,0,0,.68-2,2.59,2.59,0,0,0-.46-1.59,2.35,2.35,0,0,0-2-.81h-4.52v4.93Zm-7.75-8.06h8.75a5,5,0,0,1,4.36,2,5.32,5.32,0,0,1,1,3.18,5.25,5.25,0,0,1-.7,2.7,3.73,3.73,0,0,1-2,1.64,3.26,3.26,0,0,1,1.6,1.28,7.08,7.08,0,0,1,.58,3.37,25.63,25.63,0,0,0,.09,2.67,1.13,1.13,0,0,0,.7.92v.47h-4a7.11,7.11,0,0,1-.28-1.46c-.06-.6-.09-1.32-.09-2.21a5.51,5.51,0,0,0-.4-2.66c-.35-.53-1.14-.8-2.37-.8h-3.75v7.13h-3.53Z"/><polygon class="b" points="233.69 95.63 224.6 95.63 224.6 99.47 232.92 99.47 232.92 102.65 224.6 102.65 224.6 107.37 234.07 107.37 234.07 110.58 221.07 110.58 221.07 92.39 233.69 92.39 233.69 95.63"/><polygon class="b" points="253.57 110.58 249.96 110.58 249.96 103.71 243.86 92.39 248.09 92.39 251.81 100.34 255.18 92.39 259.24 92.39 253.57 103.78 253.57 110.58"/><path class="b" d="M266.78,106.49a4.27,4.27,0,0,0,6.06,0,6.94,6.94,0,0,0,1.59-5,7.07,7.07,0,0,0-1.59-5,4.3,4.3,0,0,0-6.06,0,7.07,7.07,0,0,0-1.58,5A6.94,6.94,0,0,0,266.78,106.49Zm-1.91-13a8.51,8.51,0,0,1,9.88,0c2.18,1.62,3.25,4.28,3.25,8s-1.07,6.3-3.25,7.92a8.43,8.43,0,0,1-9.88,0c-2.17-1.62-3.24-4.26-3.24-7.92S262.7,95.13,264.87,93.51Z"/><path class="b" d="M295.51,104.14a6.67,6.67,0,0,1-1.91,5.21,7.3,7.3,0,0,1-5.14,1.65,8.34,8.34,0,0,1-2.82-.46,5.87,5.87,0,0,1-2.7-1.76,5.08,5.08,0,0,1-1-2,7.61,7.61,0,0,1-.34-2.44v-12h3.68v11.74a3.83,3.83,0,0,0,.9,2.75,3,3,0,0,0,2.23.88,3.46,3.46,0,0,0,2.66-.92,3.51,3.51,0,0,0,.81-2.56V92.38h3.66Z"/><path class="b" d="M307.54,100.45a3.08,3.08,0,0,0,2.08-.58,3.11,3.11,0,0,0,.22-3.54,2.35,2.35,0,0,0-2-.81h-4.51v4.93Zm-7.75-8.06h8.74a5,5,0,0,1,4.38,2,5.32,5.32,0,0,1,1,3.18,5.16,5.16,0,0,1-.71,2.7,3.67,3.67,0,0,1-1.95,1.64,3.23,3.23,0,0,1,1.59,1.28,7.05,7.05,0,0,1,.59,3.37,22.94,22.94,0,0,0,.09,2.67,1.11,1.11,0,0,0,.7.92v.47h-4a7.09,7.09,0,0,1-.26-1.46,19.48,19.48,0,0,1-.1-2.21,5.64,5.64,0,0,0-.4-2.66c-.35-.53-1.13-.8-2.38-.8h-3.74v7.13h-3.53Z"/><path class="b" d="M329.21,107.47h3.5a3.19,3.19,0,0,0,3-2,8.71,8.71,0,0,0,.85-4.17q0-3.59-1.39-4.95a3.5,3.5,0,0,0-2.55-.88h-3.41ZM325.7,92.39h7.57a6.13,6.13,0,0,1,5.66,3,11.05,11.05,0,0,1,1.33,5.64,12.45,12.45,0,0,1-1.45,6.23,6.08,6.08,0,0,1-5.65,3.29H325.7Z"/><rect class="b" x="344.29" y="92.39" width="3.62" height="18.19"/><path class="b" d="M360.86,100.84h7.22v9.65h-3.21v-2.27c0,.64-.43,1.24-1.33,1.82a6.69,6.69,0,0,1-3.71,1,7.09,7.09,0,0,1-5.5-2.39,10.09,10.09,0,0,1-2.37-7.07,10.57,10.57,0,0,1,2-6.63,7.64,7.64,0,0,1,6.4-3,7.77,7.77,0,0,1,5.73,2.11,6.32,6.32,0,0,1,1.89,4h-3.6a1.79,1.79,0,0,0-.24-.77,4.41,4.41,0,0,0-.7-1,4.8,4.8,0,0,0-1.2-.86,4.31,4.31,0,0,0-1.71-.34,4.42,4.42,0,0,0-3.44,1.5,7.46,7.46,0,0,0-1.48,5c0,2.23.51,3.86,1.57,4.9a4.69,4.69,0,0,0,3.41,1.26,5,5,0,0,0,2.47-.62,3.39,3.39,0,0,0,1.8-3.26h-4Z"/><rect class="b" x="372.13" y="92.39" width="3.62" height="18.19"/><polygon class="b" points="388.2 110.59 384.6 110.59 384.6 95.63 379.29 95.63 379.29 92.39 393.52 92.39 393.52 95.63 388.2 95.63 388.2 110.59"/><path class="b" d="M401.44,103.68h4.48l-2.19-7.19h-.07Zm-2.2,6.89h-3.79l6.23-18.19h4.14L412,110.57h-3.87L407,106.81h-6.5Z"/><polygon class="b" points="418.5 107.29 427.01 107.29 427.01 110.58 414.9 110.58 414.9 92.39 418.5 92.39 418.5 107.29"/><path class="b" d="M445.72,100.45a3,3,0,0,0,2.07-.58,2.49,2.49,0,0,0,.69-2,2.59,2.59,0,0,0-.46-1.59,2.35,2.35,0,0,0-2-.81h-4.52v4.93ZM438,92.39h8.74a5,5,0,0,1,4.37,2,5.32,5.32,0,0,1,1,3.18,5.24,5.24,0,0,1-.69,2.7,3.69,3.69,0,0,1-2,1.64,3.19,3.19,0,0,1,1.59,1.28,7.05,7.05,0,0,1,.59,3.37,20,20,0,0,0,.1,2.67,1.1,1.1,0,0,0,.69.92v.47h-4a7.85,7.85,0,0,1-.28-1.46c-.06-.6-.09-1.32-.09-2.21a5.36,5.36,0,0,0-.41-2.66c-.35-.53-1.13-.8-2.36-.8h-3.76v7.13H438Z"/><rect class="b" x="456.58" y="92.39" width="3.6" height="18.19"/><path class="b" d="M473.13,100.84h7.23v9.65h-3.22v-2.27c0,.64-.44,1.24-1.32,1.82a6.7,6.7,0,0,1-3.72,1,7.12,7.12,0,0,1-5.5-2.39,10.09,10.09,0,0,1-2.36-7.07,10.51,10.51,0,0,1,2-6.63,7.65,7.65,0,0,1,6.4-3,7.81,7.81,0,0,1,5.74,2.11,6.42,6.42,0,0,1,1.89,4h-3.59a1.74,1.74,0,0,0-.26-.77,4.7,4.7,0,0,0-.69-1,5,5,0,0,0-1.2-.86,4.28,4.28,0,0,0-1.71-.34,4.45,4.45,0,0,0-3.44,1.5,7.41,7.41,0,0,0-1.5,5,6.69,6.69,0,0,0,1.58,4.9,4.72,4.72,0,0,0,3.41,1.26,5,5,0,0,0,2.48-.62,3.38,3.38,0,0,0,1.79-3.26h-4Z"/><polygon class="b" points="487.6 102.44 487.6 110.58 483.99 110.58 483.99 92.39 487.6 92.39 487.6 99.31 494.41 99.31 494.41 92.39 497.99 92.39 497.99 110.58 494.41 110.58 494.41 102.44 487.6 102.44"/><polygon class="b" points="510.07 110.59 506.46 110.59 506.46 95.63 501.15 95.63 501.15 92.39 515.38 92.39 515.38 95.63 510.07 95.63 510.07 110.59"/><path class="b" d="M521.39,105a2.72,2.72,0,0,0,.63,1.79,3.83,3.83,0,0,0,3,1.07,5.88,5.88,0,0,0,2.42-.44,2,2,0,0,0,1.15-1.86,1.67,1.67,0,0,0-.87-1.51,9,9,0,0,0-2.23-.72l-1.85-.49c-.92-.22-1.61-.4-2-.55a6.88,6.88,0,0,1-1.74-.86,3.65,3.65,0,0,1-1.23-1.48,5.67,5.67,0,0,1-.45-2.41,5.2,5.2,0,0,1,1.2-3.55c1.13-1.37,2.94-2,5.39-2a6.53,6.53,0,0,1,5.29,2.12,5.73,5.73,0,0,1,1.4,3.76h-3.4a3.3,3.3,0,0,0-.62-1.65,3.68,3.68,0,0,0-2.93-1,4,4,0,0,0-2,.46,1.86,1.86,0,0,0-1,1.7,1.6,1.6,0,0,0,.6,1.34,3.51,3.51,0,0,0,1.17.51l0,0,4.22,1.11a7.23,7.23,0,0,1,3.1,1.39,4.34,4.34,0,0,1,1.4,3.48,5.2,5.2,0,0,1-2.84,5,8.22,8.22,0,0,1-3.94.93c-2.78,0-4.8-.74-6-2.21A5.6,5.6,0,0,1,518,105Z"/><rect class="a" x="134.36" y="75.6" width="399.74" height="3.32"/></svg>